<svg width="574" height="477" viewBox="0 0 574 477" fill="none" xmlns="http://www.w3.org/2000/svg">
<path d="M420.612 1.8457C438.446 -2.25196 459.772 3.55093 478.817 11.9102C497.843 20.2605 514.496 31.1175 522.942 37.0088C526.751 39.6648 529.469 43.4516 530.892 47.8818C535.49 62.2081 546.36 97.4023 555.969 138.638C565.58 179.881 573.922 227.133 573.483 265.586C572.741 330.731 546.215 422.319 534.313 460.239C531.133 470.373 521.4 476.832 510.789 476.109L22.4043 442.87C10.0735 442.031 0.5 431.783 0.5 419.424V88.1172C0.500029 79.8168 4.81274 72.188 12.0811 68.2178C29.7234 58.5812 65.2586 40.2617 106.112 25.2158C146.98 10.165 193.107 -1.58651 231.956 1.85645C257.78 4.14508 276.995 17.4697 296.153 28.5605C315.288 39.6378 334.34 48.4558 359.636 41.3398C373.433 37.4584 381.852 29.0801 390.221 20.9688C398.599 12.8486 406.931 4.98937 420.612 1.8457Z" fill="white" stroke="#D9D9D9"/>
</svg>
