<svg width="1408" height="4940" viewBox="0 0 1408 4940" fill="none" xmlns="http://www.w3.org/2000/svg">
<g filter="url(#filter0_dddd_122_53)">
<path d="M149.429 159.309L143 1408.44V4916C143 4929.25 153.745 4940 167 4940H1305.68C1318.72 4940 1329.35 4930.39 1329.64 4917.36C1333.98 4722.55 1363.42 3313.67 1329.12 2388.1C1316.8 2055.55 1359.81 1962.22 1304.5 1538.5C1294.31 1192.22 1355.94 1104.88 1357.96 827.562C1360.11 534.429 1288.5 113 1263 86.9124C1237.51 60.8247 1115.71 22.3894 1023.77 54.9291C988.429 67.4357 967.137 84.3239 931.5 75C903.206 67.5974 899.249 35.8622 870.823 41.3604C847.036 45.9615 823.885 65.8631 800.5 75C765.32 88.7457 770.427 39.2926 734.457 41.3604C689.85 43.9247 668.745 80.1353 626 103.388C542.263 148.94 497.445 -16.7549 419.477 54.9291C391.336 80.8013 376.907 94.7643 347.5 115.5C306.19 144.629 291.446 92.888 247.5 103.389C217.337 110.596 180.333 128.953 161.601 138.883C154.048 142.887 149.473 150.76 149.429 159.309Z" fill="white"/>
<path d="M447.434 38.7812C456.185 36.3897 464.565 36.7969 472.726 39.1455C489.079 43.8524 504.527 56.3429 520.251 69.7402C535.937 83.1051 551.886 97.3625 569.157 105.406C586.472 113.47 605.144 115.303 626.239 103.827C647.655 92.1768 663.687 77.2568 679.832 65.0146C695.998 52.757 712.329 43.1331 734.485 41.8594C752.162 40.8432 759.725 52.4298 767.371 62.8555C771.172 68.0383 775.017 72.9612 780.163 75.6934C785.352 78.4482 791.785 78.9417 800.682 75.4658C812.419 70.8798 824.101 63.5908 835.76 56.9131C847.445 50.2202 859.115 44.1347 870.918 41.8516C877.923 40.4966 883.391 41.437 888.101 43.7061C892.828 45.9839 896.821 49.6135 900.855 53.6943C908.895 61.8262 917.064 71.7394 931.373 75.4834C949.305 80.1749 963.637 78.2681 977.9 73.626C985.022 71.3082 992.13 68.3073 999.649 65.1123C1007.17 61.9151 1015.12 58.521 1023.93 55.4004C1069.79 39.171 1123.13 40.6332 1168.21 49.4258C1190.74 53.8212 1211.2 60.0461 1227.61 66.7959C1244.03 73.5525 1256.35 80.8148 1262.65 87.2617C1264.17 88.8184 1265.91 91.9141 1267.83 96.502C1269.75 101.071 1271.82 107.061 1274.01 114.349C1278.4 128.923 1283.28 148.655 1288.41 172.527C1298.67 220.271 1309.95 284.544 1320.36 357.166C1341.18 502.413 1358.54 681.026 1357.46 827.559C1356.45 966.176 1340.54 1057.3 1326.16 1157.1C1311.77 1256.9 1298.9 1365.33 1304 1538.51L1304 1538.54L1304 1538.57C1331.66 1750.4 1334.73 1879.64 1332.43 1997.48C1330.13 2115.32 1322.46 2221.83 1328.62 2388.12C1362.92 3313.67 1333.48 4722.54 1329.14 4917.35C1328.85 4930.09 1318.47 4939.5 1305.68 4939.5H167C154.021 4939.5 143.5 4928.98 143.5 4916V1408.44L149.929 159.312C149.972 150.939 154.451 143.238 161.835 139.324C180.567 129.395 217.522 111.066 247.616 103.875C269.363 98.6787 283.851 108.857 298.245 116.867C305.423 120.862 312.595 124.32 320.59 124.919C328.607 125.52 337.387 123.244 347.788 115.909C377.226 95.1514 391.679 81.1649 419.815 55.2969C429.518 46.3767 438.678 41.174 447.434 38.7812Z" stroke="#D9D9D9"/>
</g>
<defs>
<filter id="filter0_dddd_122_53" x="-259" y="0.673828" width="1666.01" height="5471.33" filterUnits="userSpaceOnUse" color-interpolation-filters="sRGB">
<feFlood flood-opacity="0" result="BackgroundImageFix"/>
<feColorMatrix in="SourceAlpha" type="matrix" values="0 0 0 0 0 0 0 0 0 0 0 0 0 0 0 0 0 0 127 0" result="hardAlpha"/>
<feOffset dx="-14" dy="23"/>
<feGaussianBlur stdDeviation="29.5"/>
<feColorMatrix type="matrix" values="0 0 0 0 0 0 0 0 0 0 0 0 0 0 0 0 0 0 0.1 0"/>
<feBlend mode="normal" in2="BackgroundImageFix" result="effect1_dropShadow_122_53"/>
<feColorMatrix in="SourceAlpha" type="matrix" values="0 0 0 0 0 0 0 0 0 0 0 0 0 0 0 0 0 0 127 0" result="hardAlpha"/>
<feOffset dx="-58" dy="90"/>
<feGaussianBlur stdDeviation="53.5"/>
<feColorMatrix type="matrix" values="0 0 0 0 0 0 0 0 0 0 0 0 0 0 0 0 0 0 0.09 0"/>
<feBlend mode="normal" in2="effect1_dropShadow_122_53" result="effect2_dropShadow_122_53"/>
<feColorMatrix in="SourceAlpha" type="matrix" values="0 0 0 0 0 0 0 0 0 0 0 0 0 0 0 0 0 0 127 0" result="hardAlpha"/>
<feOffset dx="-130" dy="203"/>
<feGaussianBlur stdDeviation="72.5"/>
<feColorMatrix type="matrix" values="0 0 0 0 0 0 0 0 0 0 0 0 0 0 0 0 0 0 0.05 0"/>
<feBlend mode="normal" in2="effect2_dropShadow_122_53" result="effect3_dropShadow_122_53"/>
<feColorMatrix in="SourceAlpha" type="matrix" values="0 0 0 0 0 0 0 0 0 0 0 0 0 0 0 0 0 0 127 0" result="hardAlpha"/>
<feOffset dx="-231" dy="361"/>
<feGaussianBlur stdDeviation="85.5"/>
<feColorMatrix type="matrix" values="0 0 0 0 0 0 0 0 0 0 0 0 0 0 0 0 0 0 0.01 0"/>
<feBlend mode="normal" in2="effect3_dropShadow_122_53" result="effect4_dropShadow_122_53"/>
<feBlend mode="normal" in="SourceGraphic" in2="effect4_dropShadow_122_53" result="shape"/>
</filter>
</defs>
</svg>
