<svg width="578" height="3400" viewBox="0 0 578 3400" fill="none" xmlns="http://www.w3.org/2000/svg">
<g filter="url(#filter0_dddd_260_168)">
<path d="M-13 268.046C-13 266.704 -12.8508 265.373 -12.528 264.07C-9.53494 251.989 7.62604 187.429 37 168C74.216 143.384 84.7222 181.656 122.5 177.5C153.48 174.092 155.519 115.763 186.5 112.5C208.135 110.221 224.615 139.728 245.5 118.5C263.188 100.521 263.684 90.9758 281 68.5C306.126 35.8873 337.216 87.2681 367.5 80C392.5 74 393.072 66.1508 414 40.5001C454.573 -9.2289 501.477 91.8116 509.352 109.817C510.14 111.62 510.545 113.246 510.663 115.21C513.515 162.986 552.945 831.923 551.984 1292.13C551.098 1715.97 505.668 3233.22 500.065 3418.84C499.757 3429.05 490.965 3436.81 480.785 3435.98L3.41277 3397.33C-5.85849 3396.58 -13 3388.83 -13 3379.53V268.046Z" fill="white"/>
<path d="M429.555 28.8103C434.655 26.8795 439.766 26.8165 444.811 28.1785C454.922 30.9084 464.774 39.3648 473.652 49.9968C491.398 71.2475 505.075 100.966 509.011 109.966C509.783 111.73 510.176 113.313 510.291 115.232C513.144 163.01 552.573 831.936 551.611 1292.13C550.726 1715.96 505.297 3233.2 499.693 3418.83C499.392 3428.83 490.786 3436.42 480.814 3435.61L3.44238 3396.96C-5.63552 3396.22 -12.6279 3388.64 -12.6279 3379.53V268.046C-12.6279 266.731 -12.4819 265.43 -12.167 264.159C-10.6724 258.126 -5.63916 238.987 2.68652 218.933C6.84938 208.907 11.8323 198.659 17.6025 189.711C23.3751 180.759 29.922 173.128 37.2051 168.31C46.4639 162.186 54.0272 159.995 60.7441 160.055C67.4672 160.116 73.3889 162.433 79.374 165.411C91.3245 171.357 103.516 179.963 122.541 177.87C130.414 177.004 136.43 172.646 141.498 166.604C146.559 160.57 150.704 152.82 154.827 145.121C158.959 137.404 163.069 129.738 168.071 123.793C173.066 117.856 178.923 113.672 186.539 112.87C191.857 112.31 196.875 113.701 201.762 115.803C204.205 116.855 206.609 118.08 208.997 119.324C211.382 120.566 213.756 121.829 216.123 122.943C220.856 125.169 225.618 126.829 230.532 126.569C235.463 126.309 240.493 124.12 245.766 118.76C254.637 109.744 259.2 102.836 263.708 95.3787C268.211 87.929 272.653 79.9448 281.295 68.7273C287.516 60.6526 294.064 57.8175 300.851 57.9324C307.675 58.048 314.794 61.1455 322.141 65.074C329.456 68.9858 337.011 73.7315 344.594 77.0242C352.19 80.3226 359.901 82.2066 367.587 80.3621C380.132 77.3514 386.594 73.8632 392.541 67.8816C395.502 64.9029 398.331 61.3112 401.717 56.8757C405.106 52.4361 409.061 47.1419 414.288 40.7351C419.33 34.5556 424.45 30.7427 429.555 28.8103Z" stroke="#D9D9D9" stroke-width="0.743907"/>
</g>
<defs>
<filter id="filter0_dddd_260_168" x="-312.051" y="0.0931244" width="900.503" height="3831.71" filterUnits="userSpaceOnUse" color-interpolation-filters="sRGB">
<feFlood flood-opacity="0" result="BackgroundImageFix"/>
<feColorMatrix in="SourceAlpha" type="matrix" values="0 0 0 0 0 0 0 0 0 0 0 0 0 0 0 0 0 0 127 0" result="hardAlpha"/>
<feOffset dx="-10.4147" dy="17.1099"/>
<feGaussianBlur stdDeviation="21.9453"/>
<feColorMatrix type="matrix" values="0 0 0 0 0 0 0 0 0 0 0 0 0 0 0 0 0 0 0.1 0"/>
<feBlend mode="normal" in2="BackgroundImageFix" result="effect1_dropShadow_260_168"/>
<feColorMatrix in="SourceAlpha" type="matrix" values="0 0 0 0 0 0 0 0 0 0 0 0 0 0 0 0 0 0 127 0" result="hardAlpha"/>
<feOffset dx="-43.1466" dy="66.9516"/>
<feGaussianBlur stdDeviation="39.799"/>
<feColorMatrix type="matrix" values="0 0 0 0 0 0 0 0 0 0 0 0 0 0 0 0 0 0 0.09 0"/>
<feBlend mode="normal" in2="effect1_dropShadow_260_168" result="effect2_dropShadow_260_168"/>
<feColorMatrix in="SourceAlpha" type="matrix" values="0 0 0 0 0 0 0 0 0 0 0 0 0 0 0 0 0 0 127 0" result="hardAlpha"/>
<feOffset dx="-96.7079" dy="151.013"/>
<feGaussianBlur stdDeviation="53.9333"/>
<feColorMatrix type="matrix" values="0 0 0 0 0 0 0 0 0 0 0 0 0 0 0 0 0 0 0.05 0"/>
<feBlend mode="normal" in2="effect2_dropShadow_260_168" result="effect3_dropShadow_260_168"/>
<feColorMatrix in="SourceAlpha" type="matrix" values="0 0 0 0 0 0 0 0 0 0 0 0 0 0 0 0 0 0 127 0" result="hardAlpha"/>
<feOffset dx="-171.843" dy="268.55"/>
<feGaussianBlur stdDeviation="63.6041"/>
<feColorMatrix type="matrix" values="0 0 0 0 0 0 0 0 0 0 0 0 0 0 0 0 0 0 0.01 0"/>
<feBlend mode="normal" in2="effect3_dropShadow_260_168" result="effect4_dropShadow_260_168"/>
<feBlend mode="normal" in="SourceGraphic" in2="effect4_dropShadow_260_168" result="shape"/>
</filter>
</defs>
</svg>
