<svg width="578" height="1388" viewBox="0 0 578 1388" fill="none" xmlns="http://www.w3.org/2000/svg">
<g filter="url(#filter0_dddd_55_384)">
<path d="M-13 195.9C-13 193.516 -12.5354 191.178 -11.5311 189.015C-5.98118 177.066 14.8064 135.924 42.4552 125.244C79.6712 110.868 84.8389 178.682 122.617 176.255C153.597 174.264 159.653 88.8909 190.634 86.9851C212.269 85.6543 222.326 137.641 243.211 125.244C260.899 114.744 260.112 68.229 277.428 55.1031C302.554 36.0573 316.31 108.647 342.524 98.827C364.231 90.6958 369.584 49.1322 390.512 34.1521C428.989 6.61045 488.756 66.3386 504.124 82.8877C506.593 85.5465 508.018 88.8017 508.392 92.4107C513.599 142.678 552.915 531.139 551.984 791.533C551.147 1025.3 517.116 1367.34 509.379 1442.18C508.481 1450.87 501.435 1457.37 492.719 1457.87L5.88043 1485.91C-4.36655 1486.5 -13 1478.35 -13 1468.09V195.9Z" fill="white"/>
<path d="M390.729 34.4541C409.76 20.8315 434.122 28.7484 455.786 42.3008C477.416 55.8324 496.174 74.8732 503.852 83.1406C506.263 85.7378 507.656 88.9169 508.021 92.4492C513.229 142.72 552.543 531.161 551.611 791.532C550.775 1025.28 516.746 1367.3 509.009 1442.14C508.13 1450.64 501.238 1457.01 492.697 1457.5L5.85938 1485.54C-4.17413 1486.12 -12.6279 1478.14 -12.6279 1468.09V195.9C-12.6279 193.565 -12.1726 191.28 -11.1934 189.172C-8.4231 183.207 -1.85038 169.957 7.47754 156.869C16.8139 143.769 28.8702 130.89 42.5889 125.591C51.7736 122.043 58.9473 123.565 65.1592 127.798C71.4044 132.053 76.6843 139.05 82.0234 146.485C87.346 153.897 92.723 161.737 99.1377 167.562C105.566 173.398 113.067 177.241 122.641 176.626C130.57 176.117 136.846 170.275 142.27 161.938C147.699 153.591 152.341 142.639 156.967 131.733C161.6 120.809 166.218 109.93 171.604 101.66C176.997 93.3817 183.096 87.8216 190.656 87.3564C195.9 87.0339 200.485 89.9367 204.771 94.4023C209.056 98.8681 212.973 104.821 216.898 110.477C220.807 116.108 224.731 121.456 229.007 124.608C231.152 126.19 233.404 127.234 235.806 127.475C238.212 127.716 240.733 127.148 243.401 125.563C247.924 122.879 251.231 117.916 253.925 111.852C256.621 105.781 258.728 98.5467 260.816 91.2607C262.908 83.9632 264.98 76.6126 267.607 70.2656C270.237 63.9142 273.404 58.6204 277.653 55.3994C280.74 53.0599 283.619 52.1505 286.346 52.2881C289.079 52.4261 291.709 53.6185 294.288 55.5771C299.462 59.5065 304.323 66.4308 309.261 73.7139C314.179 80.9681 319.166 88.5676 324.57 93.7285C329.982 98.8965 335.905 101.704 342.655 99.1758C348.176 97.1076 352.634 92.9218 356.537 87.6182C360.439 82.3155 363.81 75.8628 367.143 69.2246C370.481 62.5761 373.781 55.7414 377.554 49.6289C381.326 43.5175 385.554 38.1579 390.729 34.4541Z" stroke="#D9D9D9" stroke-width="0.743907"/>
</g>
<defs>
<filter id="filter0_dddd_55_384" x="-312.051" y="0.219345" width="900.502" height="1881.48" filterUnits="userSpaceOnUse" color-interpolation-filters="sRGB">
<feFlood flood-opacity="0" result="BackgroundImageFix"/>
<feColorMatrix in="SourceAlpha" type="matrix" values="0 0 0 0 0 0 0 0 0 0 0 0 0 0 0 0 0 0 127 0" result="hardAlpha"/>
<feOffset dx="-10.4147" dy="17.1099"/>
<feGaussianBlur stdDeviation="21.9453"/>
<feColorMatrix type="matrix" values="0 0 0 0 0 0 0 0 0 0 0 0 0 0 0 0 0 0 0.1 0"/>
<feBlend mode="normal" in2="BackgroundImageFix" result="effect1_dropShadow_55_384"/>
<feColorMatrix in="SourceAlpha" type="matrix" values="0 0 0 0 0 0 0 0 0 0 0 0 0 0 0 0 0 0 127 0" result="hardAlpha"/>
<feOffset dx="-43.1466" dy="66.9516"/>
<feGaussianBlur stdDeviation="39.799"/>
<feColorMatrix type="matrix" values="0 0 0 0 0 0 0 0 0 0 0 0 0 0 0 0 0 0 0.09 0"/>
<feBlend mode="normal" in2="effect1_dropShadow_55_384" result="effect2_dropShadow_55_384"/>
<feColorMatrix in="SourceAlpha" type="matrix" values="0 0 0 0 0 0 0 0 0 0 0 0 0 0 0 0 0 0 127 0" result="hardAlpha"/>
<feOffset dx="-96.7079" dy="151.013"/>
<feGaussianBlur stdDeviation="53.9333"/>
<feColorMatrix type="matrix" values="0 0 0 0 0 0 0 0 0 0 0 0 0 0 0 0 0 0 0.05 0"/>
<feBlend mode="normal" in2="effect2_dropShadow_55_384" result="effect3_dropShadow_55_384"/>
<feColorMatrix in="SourceAlpha" type="matrix" values="0 0 0 0 0 0 0 0 0 0 0 0 0 0 0 0 0 0 127 0" result="hardAlpha"/>
<feOffset dx="-171.843" dy="268.55"/>
<feGaussianBlur stdDeviation="63.6041"/>
<feColorMatrix type="matrix" values="0 0 0 0 0 0 0 0 0 0 0 0 0 0 0 0 0 0 0.01 0"/>
<feBlend mode="normal" in2="effect3_dropShadow_55_384" result="effect4_dropShadow_55_384"/>
<feBlend mode="normal" in="SourceGraphic" in2="effect4_dropShadow_55_384" result="shape"/>
</filter>
</defs>
</svg>
