<svg width="578" height="2485" viewBox="0 0 578 2485" fill="none" xmlns="http://www.w3.org/2000/svg">
<g filter="url(#filter0_dddd_55_384)">
<path d="M-13 316.194C-13 314.754 -12.835 313.354 -12.4723 311.961C-8.86817 298.118 12.8639 218.798 42.4552 199.225C79.6712 174.609 84.7222 229.656 122.5 225.5C153.48 222.092 159.653 136.978 190.634 133.714C212.269 131.435 224.615 187.728 245.5 166.5C263.188 148.521 260.112 101.598 277.428 79.1218C302.554 46.5091 324.285 126.315 350.5 109.5C372.207 95.5767 369.584 68.8975 390.512 43.2468C429.481 -4.51749 488.119 65.8674 501.985 83.9488C504 86.5758 505.076 89.2296 505.278 92.5341C509.185 156.557 552.937 883.968 551.984 1340.13C551.121 1752.77 514.984 2362.42 508.74 2464.79C508.206 2473.53 501.424 2480.26 492.711 2481.12L6.6062 2529.07C-3.89587 2530.1 -13 2521.85 -13 2511.3V316.194Z" fill="white"/>
<path d="M422.414 27.2849C433.508 27.4477 444.855 32.2928 455.459 39.2175C476.667 53.0671 494.762 75.1409 501.69 84.1755C503.664 86.7491 504.71 89.3329 504.907 92.5564C508.784 156.082 551.884 872.657 551.626 1329.39L551.611 1340.13C550.749 1752.76 514.613 2362.39 508.368 2464.77C507.847 2473.32 501.215 2479.91 492.675 2480.75L6.56934 2528.7C-3.71364 2529.71 -12.6277 2521.63 -12.6279 2511.3V316.194C-12.6279 314.784 -12.4664 313.415 -12.1123 312.054C-10.3118 305.139 -3.98226 281.866 5.5918 257.88C10.3789 245.886 15.974 233.724 22.2148 223.343C28.4599 212.954 35.3317 204.383 42.6602 199.536C51.9044 193.421 59.0903 192.29 65.2568 193.89C71.4515 195.498 76.6911 199.876 82.0098 204.959C92.5986 215.078 103.443 227.971 122.541 225.87C130.462 224.998 136.739 218.911 142.173 210.38C147.613 201.838 152.269 190.744 156.909 179.697C161.557 168.632 166.189 157.612 171.588 149.153C176.993 140.684 183.105 134.881 190.673 134.084C195.905 133.533 200.625 136.516 205.131 141.121C209.635 145.723 213.834 151.849 218.051 157.437C222.244 162.994 226.469 168.042 230.99 170.344C233.266 171.502 235.632 171.974 238.109 171.457C240.581 170.94 243.121 169.448 245.766 166.76C250.245 162.208 253.391 155.843 255.868 148.543C258.346 141.241 260.165 132.966 261.968 124.575C263.772 116.176 265.559 107.66 267.977 99.8386C270.394 92.0165 273.433 84.9168 277.723 79.3484C280.835 75.3083 283.866 73.0494 286.819 72.1082C289.765 71.1696 292.683 71.5269 295.609 72.8152C298.544 74.1071 301.476 76.3307 304.424 79.1062C307.369 81.8799 310.313 85.1876 313.274 88.6296C319.182 95.496 325.176 102.92 331.333 107.558C334.417 109.882 337.57 111.529 340.805 112.052C344.051 112.576 347.351 111.962 350.701 109.813C361.662 102.783 366.468 92.5301 371.144 80.9099C375.824 69.2771 380.379 56.2544 390.8 43.4822C400.476 31.6217 411.343 27.1226 422.414 27.2849Z" stroke="#D9D9D9" stroke-width="0.743907"/>
</g>
<defs>
<filter id="filter0_dddd_55_384" x="-312.051" y="0.128281" width="900.501" height="2924.79" filterUnits="userSpaceOnUse" color-interpolation-filters="sRGB">
<feFlood flood-opacity="0" result="BackgroundImageFix"/>
<feColorMatrix in="SourceAlpha" type="matrix" values="0 0 0 0 0 0 0 0 0 0 0 0 0 0 0 0 0 0 127 0" result="hardAlpha"/>
<feOffset dx="-10.4147" dy="17.1099"/>
<feGaussianBlur stdDeviation="21.9453"/>
<feColorMatrix type="matrix" values="0 0 0 0 0 0 0 0 0 0 0 0 0 0 0 0 0 0 0.1 0"/>
<feBlend mode="normal" in2="BackgroundImageFix" result="effect1_dropShadow_55_384"/>
<feColorMatrix in="SourceAlpha" type="matrix" values="0 0 0 0 0 0 0 0 0 0 0 0 0 0 0 0 0 0 127 0" result="hardAlpha"/>
<feOffset dx="-43.1466" dy="66.9516"/>
<feGaussianBlur stdDeviation="39.799"/>
<feColorMatrix type="matrix" values="0 0 0 0 0 0 0 0 0 0 0 0 0 0 0 0 0 0 0.09 0"/>
<feBlend mode="normal" in2="effect1_dropShadow_55_384" result="effect2_dropShadow_55_384"/>
<feColorMatrix in="SourceAlpha" type="matrix" values="0 0 0 0 0 0 0 0 0 0 0 0 0 0 0 0 0 0 127 0" result="hardAlpha"/>
<feOffset dx="-96.7079" dy="151.013"/>
<feGaussianBlur stdDeviation="53.9333"/>
<feColorMatrix type="matrix" values="0 0 0 0 0 0 0 0 0 0 0 0 0 0 0 0 0 0 0.05 0"/>
<feBlend mode="normal" in2="effect2_dropShadow_55_384" result="effect3_dropShadow_55_384"/>
<feColorMatrix in="SourceAlpha" type="matrix" values="0 0 0 0 0 0 0 0 0 0 0 0 0 0 0 0 0 0 127 0" result="hardAlpha"/>
<feOffset dx="-171.843" dy="268.55"/>
<feGaussianBlur stdDeviation="63.6041"/>
<feColorMatrix type="matrix" values="0 0 0 0 0 0 0 0 0 0 0 0 0 0 0 0 0 0 0.01 0"/>
<feBlend mode="normal" in2="effect3_dropShadow_55_384" result="effect4_dropShadow_55_384"/>
<feBlend mode="normal" in="SourceGraphic" in2="effect4_dropShadow_55_384" result="shape"/>
</filter>
</defs>
</svg>
