<svg width="1337" height="938" viewBox="0 0 1337 938" fill="none" xmlns="http://www.w3.org/2000/svg">
<g filter="url(#filter0_dddd_34_240)">
<path d="M152 157.05C152 149.44 155.589 142.288 161.888 138.016C179.721 125.92 218.144 101.753 247.5 96.5674C288.589 89.3087 314.376 132.113 353 111.977C380.495 97.6426 384.189 64.2044 410.5 46.3198C483.399 -3.23287 535.708 143.465 614 111.977C653.966 95.9025 663.293 38.7129 705 36.9403C738.632 35.5109 752.107 89.3201 785 79.8182C806.864 73.5021 810.26 40.1208 832.5 36.9403C859.077 33.1395 866.546 74.701 893 79.8182C926.32 86.2634 942.459 54.9652 975.5 46.3198C1046.12 27.8406 1151.67 54.6455 1187.1 64.8018C1194.73 66.9882 1200.47 72.8386 1202.62 80.4767C1219.16 139.386 1289.74 401.5 1287.97 580.414C1286.36 743.224 1223.44 978.299 1204.51 1045.45C1201.44 1056.35 1191.12 1063.37 1179.84 1062.48L174.125 983.69C161.636 982.711 152 972.291 152 959.763V157.05Z" fill="white"/>
<path d="M410.781 46.7334C428.857 34.4468 445.62 34.3283 461.862 40.5684C478.151 46.8264 493.908 59.4768 509.908 72.7588C525.879 86.0166 542.085 99.8983 559.201 108.48C576.342 117.075 594.444 120.381 614.187 112.44C634.328 104.34 646.74 85.8781 659.245 69.3975C671.797 52.8544 684.428 38.3147 705.021 37.4395C713.282 37.0885 720.321 40.1246 726.771 44.7783C733.232 49.4412 739.062 55.6969 744.918 61.7539C750.754 67.7908 756.619 73.633 763.104 77.3594C769.613 81.1 776.762 82.7186 785.139 80.2988C796.281 77.0801 802.694 66.9664 809.024 57.4814C815.411 47.9125 821.706 38.9895 832.57 37.4355C845.541 35.5806 853.882 44.7577 862.407 55.3486C866.642 60.6098 870.914 66.2025 875.781 70.7891C880.657 75.3833 886.166 79.005 892.905 80.3086C909.763 83.5695 922.27 77.2641 934.629 69.1455C947.012 61.011 959.21 51.0994 975.627 46.8037C1010.84 37.5899 1054.8 39.6592 1094.43 45.3174C1134.04 50.9738 1169.26 60.2075 1186.96 65.2822C1194.42 67.4202 1200.04 73.1387 1202.14 80.6123C1218.69 139.533 1289.24 401.578 1287.47 580.409C1285.86 743.141 1222.96 978.154 1204.03 1045.32C1201.03 1055.98 1190.93 1062.85 1179.88 1061.99L174.164 983.191C161.935 982.233 152.5 972.029 152.5 959.763V157.05C152.5 149.596 156.015 142.603 162.168 138.43C171.076 132.387 185.124 123.333 200.606 115.143C216.098 106.948 232.987 99.6388 247.587 97.0596C267.948 93.4625 284.51 102.258 300.972 109.558C317.399 116.842 333.699 122.603 353.231 112.42C367.115 105.182 374.974 93.1229 382.619 80.7422C390.282 68.333 397.731 55.6045 410.781 46.7334Z" stroke="#D9D9D9"/>
</g>
<defs>
<filter id="filter0_dddd_34_240" x="-250" y="0" width="1587" height="1594.56" filterUnits="userSpaceOnUse" color-interpolation-filters="sRGB">
<feFlood flood-opacity="0" result="BackgroundImageFix"/>
<feColorMatrix in="SourceAlpha" type="matrix" values="0 0 0 0 0 0 0 0 0 0 0 0 0 0 0 0 0 0 127 0" result="hardAlpha"/>
<feOffset dx="-14" dy="23"/>
<feGaussianBlur stdDeviation="29.5"/>
<feColorMatrix type="matrix" values="0 0 0 0 0 0 0 0 0 0 0 0 0 0 0 0 0 0 0.1 0"/>
<feBlend mode="normal" in2="BackgroundImageFix" result="effect1_dropShadow_34_240"/>
<feColorMatrix in="SourceAlpha" type="matrix" values="0 0 0 0 0 0 0 0 0 0 0 0 0 0 0 0 0 0 127 0" result="hardAlpha"/>
<feOffset dx="-58" dy="90"/>
<feGaussianBlur stdDeviation="53.5"/>
<feColorMatrix type="matrix" values="0 0 0 0 0 0 0 0 0 0 0 0 0 0 0 0 0 0 0.09 0"/>
<feBlend mode="normal" in2="effect1_dropShadow_34_240" result="effect2_dropShadow_34_240"/>
<feColorMatrix in="SourceAlpha" type="matrix" values="0 0 0 0 0 0 0 0 0 0 0 0 0 0 0 0 0 0 127 0" result="hardAlpha"/>
<feOffset dx="-130" dy="203"/>
<feGaussianBlur stdDeviation="72.5"/>
<feColorMatrix type="matrix" values="0 0 0 0 0 0 0 0 0 0 0 0 0 0 0 0 0 0 0.05 0"/>
<feBlend mode="normal" in2="effect2_dropShadow_34_240" result="effect3_dropShadow_34_240"/>
<feColorMatrix in="SourceAlpha" type="matrix" values="0 0 0 0 0 0 0 0 0 0 0 0 0 0 0 0 0 0 127 0" result="hardAlpha"/>
<feOffset dx="-231" dy="361"/>
<feGaussianBlur stdDeviation="85.5"/>
<feColorMatrix type="matrix" values="0 0 0 0 0 0 0 0 0 0 0 0 0 0 0 0 0 0 0.01 0"/>
<feBlend mode="normal" in2="effect3_dropShadow_34_240" result="effect4_dropShadow_34_240"/>
<feBlend mode="normal" in="SourceGraphic" in2="effect4_dropShadow_34_240" result="shape"/>
</filter>
</defs>
</svg>
