<svg width="1401" height="4914" viewBox="0 0 1401 4914" fill="none" xmlns="http://www.w3.org/2000/svg">
<g filter="url(#filter0_dddd_34_240)">
<path d="M152 157.05C152 149.44 155.589 142.288 161.888 138.016C179.721 125.92 218.144 101.753 247.5 96.5674C288.589 89.3087 314.376 132.113 353 111.977C380.495 97.6426 384.189 64.2044 410.5 46.3198C483.399 -3.23287 535.708 143.465 614 111.977C653.966 95.9025 663.293 38.7129 705 36.9403C738.632 35.5109 752.107 89.3201 785 79.8182C806.864 73.5021 810.26 40.1208 832.5 36.9403C859.077 33.1395 866.546 74.701 893 79.8182C926.32 86.2634 942.459 54.9652 975.5 46.3198C1046.51 27.7402 1152.82 54.9381 1187.67 64.9658C1194.98 67.0701 1200.6 72.6761 1202.98 79.9069C1226.68 152.194 1353.32 547.315 1351.5 731C1349.68 914.484 1351.34 4601.81 1351.49 4917.49C1351.5 4930.75 1340.75 4939 1327.49 4939H176C162.745 4939 152 4928.25 152 4915V157.05Z" fill="white"/>
<path d="M410.781 46.7334C428.857 34.4468 445.62 34.3283 461.862 40.5684C478.151 46.8264 493.908 59.4768 509.908 72.7588C525.879 86.0166 542.085 99.8983 559.201 108.48C576.342 117.075 594.444 120.381 614.187 112.44C634.328 104.34 646.74 85.8781 659.245 69.3975C671.797 52.8544 684.428 38.3147 705.021 37.4395C713.282 37.0885 720.321 40.1246 726.771 44.7783C733.232 49.4412 739.062 55.6969 744.918 61.7539C750.754 67.7908 756.619 73.633 763.104 77.3594C769.613 81.1 776.762 82.7186 785.139 80.2988C796.281 77.0801 802.694 66.9664 809.024 57.4814C815.411 47.9125 821.706 38.9895 832.57 37.4355C845.541 35.5806 853.882 44.7577 862.407 55.3486C866.642 60.6098 870.914 66.2025 875.781 70.7891C880.657 75.3833 886.166 79.005 892.905 80.3086C909.763 83.5695 922.27 77.2641 934.629 69.1455C947.012 61.011 959.21 51.0994 975.627 46.8037C1011.03 37.5398 1055.28 39.6824 1095.07 45.4102C1134.85 51.1361 1170.12 60.4358 1187.53 65.4463C1194.68 67.5029 1200.18 72.9824 1202.5 80.0625C1214.35 116.202 1251.93 233.044 1286.32 363.807C1320.72 494.589 1351.91 639.229 1351 730.995C1349.18 914.483 1350.84 4601.81 1350.99 4917.49C1350.99 4923.97 1348.37 4929.21 1344.14 4932.84C1339.9 4936.47 1334.02 4938.5 1327.49 4938.5H176C163.021 4938.5 152.5 4927.98 152.5 4915V157.05C152.5 149.596 156.015 142.603 162.168 138.43C171.076 132.387 185.124 123.333 200.606 115.143C216.098 106.948 232.987 99.6388 247.587 97.0596C267.948 93.4625 284.51 102.258 300.972 109.558C317.399 116.842 333.699 122.603 353.231 112.42C367.115 105.182 374.974 93.1229 382.619 80.7422C390.282 68.333 397.731 55.6045 410.781 46.7334Z" stroke="#D9D9D9"/>
</g>
<defs>
<filter id="filter0_dddd_34_240" x="-250" y="0" width="1650.52" height="5471" filterUnits="userSpaceOnUse" color-interpolation-filters="sRGB">
<feFlood flood-opacity="0" result="BackgroundImageFix"/>
<feColorMatrix in="SourceAlpha" type="matrix" values="0 0 0 0 0 0 0 0 0 0 0 0 0 0 0 0 0 0 127 0" result="hardAlpha"/>
<feOffset dx="-14" dy="23"/>
<feGaussianBlur stdDeviation="29.5"/>
<feColorMatrix type="matrix" values="0 0 0 0 0 0 0 0 0 0 0 0 0 0 0 0 0 0 0.1 0"/>
<feBlend mode="normal" in2="BackgroundImageFix" result="effect1_dropShadow_34_240"/>
<feColorMatrix in="SourceAlpha" type="matrix" values="0 0 0 0 0 0 0 0 0 0 0 0 0 0 0 0 0 0 127 0" result="hardAlpha"/>
<feOffset dx="-58" dy="90"/>
<feGaussianBlur stdDeviation="53.5"/>
<feColorMatrix type="matrix" values="0 0 0 0 0 0 0 0 0 0 0 0 0 0 0 0 0 0 0.09 0"/>
<feBlend mode="normal" in2="effect1_dropShadow_34_240" result="effect2_dropShadow_34_240"/>
<feColorMatrix in="SourceAlpha" type="matrix" values="0 0 0 0 0 0 0 0 0 0 0 0 0 0 0 0 0 0 127 0" result="hardAlpha"/>
<feOffset dx="-130" dy="203"/>
<feGaussianBlur stdDeviation="72.5"/>
<feColorMatrix type="matrix" values="0 0 0 0 0 0 0 0 0 0 0 0 0 0 0 0 0 0 0.05 0"/>
<feBlend mode="normal" in2="effect2_dropShadow_34_240" result="effect3_dropShadow_34_240"/>
<feColorMatrix in="SourceAlpha" type="matrix" values="0 0 0 0 0 0 0 0 0 0 0 0 0 0 0 0 0 0 127 0" result="hardAlpha"/>
<feOffset dx="-231" dy="361"/>
<feGaussianBlur stdDeviation="85.5"/>
<feColorMatrix type="matrix" values="0 0 0 0 0 0 0 0 0 0 0 0 0 0 0 0 0 0 0.01 0"/>
<feBlend mode="normal" in2="effect3_dropShadow_34_240" result="effect4_dropShadow_34_240"/>
<feBlend mode="normal" in="SourceGraphic" in2="effect4_dropShadow_34_240" result="shape"/>
</filter>
</defs>
</svg>
