<svg width="195" height="218" viewBox="0 0 195 218" fill="none" xmlns="http://www.w3.org/2000/svg">
<ellipse cx="110.9" cy="56.0114" rx="3.20225" ry="3.26344" transform="rotate(-90 110.9 56.0114)" fill="#5775FA"/>
<ellipse cx="110.9" cy="214.438" rx="3.20225" ry="3.26344" transform="rotate(-90 110.9 214.438)" fill="#5775FA"/>
<ellipse cx="110.9" cy="29.6068" rx="3.20225" ry="3.26344" transform="rotate(-90 110.9 29.6068)" fill="#5775FA"/>
<ellipse cx="110.9" cy="3.20229" rx="3.20225" ry="3.26344" transform="rotate(-90 110.9 3.20229)" fill="#5775FA"/>
<ellipse cx="110.9" cy="82.4157" rx="3.20225" ry="3.26344" transform="rotate(-90 110.9 82.4157)" fill="#5775FA"/>
<ellipse cx="110.9" cy="108.82" rx="3.20225" ry="3.26344" transform="rotate(-90 110.9 108.82)" fill="#5775FA"/>
<ellipse cx="110.9" cy="135.225" rx="3.20225" ry="3.26344" transform="rotate(-90 110.9 135.225)" fill="#5775FA"/>
<ellipse cx="110.9" cy="161.629" rx="3.20225" ry="3.26344" transform="rotate(-90 110.9 161.629)" fill="#5775FA"/>
<ellipse cx="110.9" cy="188.034" rx="3.20225" ry="3.26344" transform="rotate(-90 110.9 188.034)" fill="#5775FA"/>
<ellipse cx="3.26344" cy="56.0114" rx="3.20225" ry="3.26344" transform="rotate(-90 3.26344 56.0114)" fill="#5775FA"/>
<ellipse cx="3.26344" cy="214.438" rx="3.20225" ry="3.26344" transform="rotate(-90 3.26344 214.438)" fill="#5775FA"/>
<ellipse cx="3.26344" cy="29.6068" rx="3.20225" ry="3.26344" transform="rotate(-90 3.26344 29.6068)" fill="#5775FA"/>
<ellipse cx="3.26344" cy="3.20229" rx="3.20225" ry="3.26344" transform="rotate(-90 3.26344 3.20229)" fill="#5775FA"/>
<ellipse cx="3.26344" cy="82.4157" rx="3.20225" ry="3.26344" transform="rotate(-90 3.26344 82.4157)" fill="#5775FA"/>
<ellipse cx="3.26344" cy="108.82" rx="3.20225" ry="3.26344" transform="rotate(-90 3.26344 108.82)" fill="#5775FA"/>
<ellipse cx="3.26344" cy="135.225" rx="3.20225" ry="3.26344" transform="rotate(-90 3.26344 135.225)" fill="#5775FA"/>
<ellipse cx="3.26344" cy="161.629" rx="3.20225" ry="3.26344" transform="rotate(-90 3.26344 161.629)" fill="#5775FA"/>
<ellipse cx="3.26344" cy="188.034" rx="3.20225" ry="3.26344" transform="rotate(-90 3.26344 188.034)" fill="#5775FA"/>
<ellipse cx="137.809" cy="56.0114" rx="3.20225" ry="3.26344" transform="rotate(-90 137.809 56.0114)" fill="#5775FA"/>
<ellipse cx="137.809" cy="214.438" rx="3.20225" ry="3.26344" transform="rotate(-90 137.809 214.438)" fill="#5775FA"/>
<ellipse cx="137.809" cy="29.6068" rx="3.20225" ry="3.26344" transform="rotate(-90 137.809 29.6068)" fill="#5775FA"/>
<ellipse cx="137.809" cy="3.20229" rx="3.20225" ry="3.26344" transform="rotate(-90 137.809 3.20229)" fill="#5775FA"/>
<ellipse cx="137.809" cy="82.4157" rx="3.20225" ry="3.26344" transform="rotate(-90 137.809 82.4157)" fill="#5775FA"/>
<ellipse cx="137.809" cy="108.82" rx="3.20225" ry="3.26344" transform="rotate(-90 137.809 108.82)" fill="#5775FA"/>
<ellipse cx="137.809" cy="135.225" rx="3.20225" ry="3.26344" transform="rotate(-90 137.809 135.225)" fill="#5775FA"/>
<ellipse cx="137.809" cy="161.629" rx="3.20225" ry="3.26344" transform="rotate(-90 137.809 161.629)" fill="#5775FA"/>
<ellipse cx="137.809" cy="188.034" rx="3.20225" ry="3.26344" transform="rotate(-90 137.809 188.034)" fill="#5775FA"/>
<ellipse cx="30.1725" cy="56.0114" rx="3.20225" ry="3.26344" transform="rotate(-90 30.1725 56.0114)" fill="#5775FA"/>
<ellipse cx="30.1725" cy="214.438" rx="3.20225" ry="3.26344" transform="rotate(-90 30.1725 214.438)" fill="#5775FA"/>
<ellipse cx="30.1725" cy="29.6068" rx="3.20225" ry="3.26344" transform="rotate(-90 30.1725 29.6068)" fill="#5775FA"/>
<ellipse cx="30.1725" cy="3.20229" rx="3.20225" ry="3.26344" transform="rotate(-90 30.1725 3.20229)" fill="#5775FA"/>
<ellipse cx="30.1725" cy="82.4157" rx="3.20225" ry="3.26344" transform="rotate(-90 30.1725 82.4157)" fill="#5775FA"/>
<ellipse cx="30.1725" cy="108.82" rx="3.20225" ry="3.26344" transform="rotate(-90 30.1725 108.82)" fill="#5775FA"/>
<ellipse cx="30.1725" cy="135.225" rx="3.20225" ry="3.26344" transform="rotate(-90 30.1725 135.225)" fill="#5775FA"/>
<ellipse cx="30.1725" cy="161.629" rx="3.20225" ry="3.26344" transform="rotate(-90 30.1725 161.629)" fill="#5775FA"/>
<ellipse cx="30.1725" cy="188.034" rx="3.20225" ry="3.26344" transform="rotate(-90 30.1725 188.034)" fill="#5775FA"/>
<ellipse cx="164.718" cy="56.0114" rx="3.20225" ry="3.26344" transform="rotate(-90 164.718 56.0114)" fill="#5775FA"/>
<ellipse cx="164.718" cy="214.438" rx="3.20225" ry="3.26344" transform="rotate(-90 164.718 214.438)" fill="#5775FA"/>
<ellipse cx="164.718" cy="29.6068" rx="3.20225" ry="3.26344" transform="rotate(-90 164.718 29.6068)" fill="#5775FA"/>
<ellipse cx="164.718" cy="3.20229" rx="3.20225" ry="3.26344" transform="rotate(-90 164.718 3.20229)" fill="#5775FA"/>
<ellipse cx="164.718" cy="82.4157" rx="3.20225" ry="3.26344" transform="rotate(-90 164.718 82.4157)" fill="#5775FA"/>
<ellipse cx="164.718" cy="108.82" rx="3.20225" ry="3.26344" transform="rotate(-90 164.718 108.82)" fill="#5775FA"/>
<ellipse cx="164.718" cy="135.225" rx="3.20225" ry="3.26344" transform="rotate(-90 164.718 135.225)" fill="#5775FA"/>
<ellipse cx="164.718" cy="161.629" rx="3.20225" ry="3.26344" transform="rotate(-90 164.718 161.629)" fill="#5775FA"/>
<ellipse cx="164.718" cy="188.034" rx="3.20225" ry="3.26344" transform="rotate(-90 164.718 188.034)" fill="#5775FA"/>
<ellipse cx="57.0816" cy="56.0114" rx="3.20225" ry="3.26344" transform="rotate(-90 57.0816 56.0114)" fill="#5775FA"/>
<ellipse cx="57.0816" cy="214.438" rx="3.20225" ry="3.26344" transform="rotate(-90 57.0816 214.438)" fill="#5775FA"/>
<ellipse cx="57.0816" cy="29.6068" rx="3.20225" ry="3.26344" transform="rotate(-90 57.0816 29.6068)" fill="#5775FA"/>
<ellipse cx="57.0816" cy="3.20229" rx="3.20225" ry="3.26344" transform="rotate(-90 57.0816 3.20229)" fill="#5775FA"/>
<ellipse cx="57.0816" cy="82.4157" rx="3.20225" ry="3.26344" transform="rotate(-90 57.0816 82.4157)" fill="#5775FA"/>
<ellipse cx="57.0816" cy="108.82" rx="3.20225" ry="3.26344" transform="rotate(-90 57.0816 108.82)" fill="#5775FA"/>
<ellipse cx="57.0816" cy="135.225" rx="3.20225" ry="3.26344" transform="rotate(-90 57.0816 135.225)" fill="#5775FA"/>
<ellipse cx="57.0816" cy="161.629" rx="3.20225" ry="3.26344" transform="rotate(-90 57.0816 161.629)" fill="#5775FA"/>
<ellipse cx="57.0816" cy="188.034" rx="3.20225" ry="3.26344" transform="rotate(-90 57.0816 188.034)" fill="#5775FA"/>
<ellipse cx="191.627" cy="56.0111" rx="3.20225" ry="3.26344" transform="rotate(-90 191.627 56.0111)" fill="#5775FA"/>
<ellipse cx="191.627" cy="214.438" rx="3.20225" ry="3.26344" transform="rotate(-90 191.627 214.438)" fill="#5775FA"/>
<ellipse cx="191.627" cy="29.6068" rx="3.20225" ry="3.26344" transform="rotate(-90 191.627 29.6068)" fill="#5775FA"/>
<ellipse cx="191.627" cy="3.20229" rx="3.20225" ry="3.26344" transform="rotate(-90 191.627 3.20229)" fill="#5775FA"/>
<ellipse cx="191.627" cy="82.4157" rx="3.20225" ry="3.26344" transform="rotate(-90 191.627 82.4157)" fill="#5775FA"/>
<ellipse cx="191.627" cy="108.82" rx="3.20225" ry="3.26344" transform="rotate(-90 191.627 108.82)" fill="#5775FA"/>
<ellipse cx="191.627" cy="135.225" rx="3.20225" ry="3.26344" transform="rotate(-90 191.627 135.225)" fill="#5775FA"/>
<ellipse cx="191.627" cy="161.629" rx="3.20225" ry="3.26344" transform="rotate(-90 191.627 161.629)" fill="#5775FA"/>
<ellipse cx="191.627" cy="188.034" rx="3.20225" ry="3.26344" transform="rotate(-90 191.627 188.034)" fill="#5775FA"/>
<ellipse cx="83.9907" cy="56.0114" rx="3.20225" ry="3.26344" transform="rotate(-90 83.9907 56.0114)" fill="#5775FA"/>
<ellipse cx="83.9907" cy="214.438" rx="3.20225" ry="3.26344" transform="rotate(-90 83.9907 214.438)" fill="#5775FA"/>
<ellipse cx="83.9907" cy="29.6068" rx="3.20225" ry="3.26344" transform="rotate(-90 83.9907 29.6068)" fill="#5775FA"/>
<ellipse cx="83.9907" cy="3.20229" rx="3.20225" ry="3.26344" transform="rotate(-90 83.9907 3.20229)" fill="#5775FA"/>
<ellipse cx="83.9907" cy="82.4157" rx="3.20225" ry="3.26344" transform="rotate(-90 83.9907 82.4157)" fill="#5775FA"/>
<ellipse cx="83.9907" cy="108.82" rx="3.20225" ry="3.26344" transform="rotate(-90 83.9907 108.82)" fill="#5775FA"/>
<ellipse cx="83.9907" cy="135.225" rx="3.20225" ry="3.26344" transform="rotate(-90 83.9907 135.225)" fill="#5775FA"/>
<ellipse cx="83.9907" cy="161.629" rx="3.20225" ry="3.26344" transform="rotate(-90 83.9907 161.629)" fill="#5775FA"/>
<ellipse cx="83.9907" cy="188.034" rx="3.20225" ry="3.26344" transform="rotate(-90 83.9907 188.034)" fill="#5775FA"/>
</svg>
