<svg width="28" height="28" viewBox="0 0 28 28" fill="none" xmlns="http://www.w3.org/2000/svg">
<path fill-rule="evenodd" clip-rule="evenodd" d="M18.5 24.5V18.5H24.5L24.5015 24.5H18.5ZM24.5 15.5H18.5C16.8455 15.5 15.5 16.8455 15.5 18.5V24.5C15.5 26.1545 16.8455 27.5 18.5 27.5H24.5C26.1545 27.5 27.5 26.1545 27.5 24.5V18.5C27.5 16.8455 26.1545 15.5 24.5 15.5ZM3.5 24.5V18.5H9.5L9.5015 24.5H3.5ZM9.5 15.5H3.5C1.8455 15.5 0.5 16.8455 0.5 18.5V24.5C0.5 26.1545 1.8455 27.5 3.5 27.5H9.5C11.1545 27.5 12.5 26.1545 12.5 24.5V18.5C12.5 16.8455 11.1545 15.5 9.5 15.5ZM18.5 9.5V3.5H24.5L24.5015 9.5H18.5ZM24.5 0.5H18.5C16.8455 0.5 15.5 1.8455 15.5 3.5V9.5C15.5 11.1545 16.8455 12.5 18.5 12.5H24.5C26.1545 12.5 27.5 11.1545 27.5 9.5V3.5C27.5 1.8455 26.1545 0.5 24.5 0.5ZM3.5 9.5V3.5H9.5L9.5015 9.5H3.5ZM9.5 0.5H3.5C1.8455 0.5 0.5 1.8455 0.5 3.5V9.5C0.5 11.1545 1.8455 12.5 3.5 12.5H9.5C11.1545 12.5 12.5 11.1545 12.5 9.5V3.5C12.5 1.8455 11.1545 0.5 9.5 0.5Z" fill="#5775FA"/>
</svg>
