<svg width="31" height="31" viewBox="0 0 31 31" fill="none" xmlns="http://www.w3.org/2000/svg">
<path fill-rule="evenodd" clip-rule="evenodd" d="M7.5002 15.4989C7.5002 14.6709 8.1722 13.9989 9.0002 13.9989C9.8282 13.9989 10.5002 14.6709 10.5002 15.4989C10.5002 16.3269 9.8282 16.9989 9.0002 16.9989C8.1722 16.9989 7.5002 16.3269 7.5002 15.4989ZM15.0002 13.9989C14.1722 13.9989 13.5002 14.6709 13.5002 15.4989C13.5002 16.3269 14.1722 16.9989 15.0002 16.9989C15.8282 16.9989 16.5002 16.3269 16.5002 15.4989C16.5002 14.6709 15.8282 13.9989 15.0002 13.9989ZM21.0002 13.9989C20.1722 13.9989 19.5002 14.6709 19.5002 15.4989C19.5002 16.3269 20.1722 16.9989 21.0002 16.9989C21.8282 16.9989 22.5002 16.3269 22.5002 15.4989C22.5002 14.6709 21.8282 13.9989 21.0002 13.9989ZM26.8478 17.4412C26.0873 22.3222 22.1528 26.3707 17.2793 27.2842C14.9258 27.7282 12.5288 27.4747 10.3538 26.5537C9.73734 26.2927 9.09984 26.1607 8.47434 26.1607C8.18934 26.1607 7.90734 26.1877 7.62984 26.2432L3.41184 27.0862L4.25634 22.8607C4.43334 21.9832 4.32534 21.0442 3.94584 20.1457C3.02484 17.9707 2.77284 15.5752 3.21534 13.2202C4.12884 8.34673 8.17584 4.41223 13.0583 3.65173C16.9433 3.04723 20.7428 4.27123 23.4848 7.01323C26.2283 9.75673 27.4538 13.5577 26.8478 17.4412ZM25.6074 4.89226C22.1799 1.46626 17.4399 -0.0622431 12.5964 0.686257C6.4809 1.64026 1.4109 6.56626 0.2664 12.6668C-0.2856 15.6038 0.0324003 18.5948 1.1829 21.3143C1.3284 21.6608 1.3734 21.9833 1.3164 22.2728L0.0294003 28.7048C-0.0695997 29.1968 0.0849003 29.7053 0.4404 30.0593C0.7239 30.3443 1.1064 30.4988 1.5009 30.4988C1.5984 30.4988 1.6959 30.4898 1.7949 30.4703L8.2194 29.1848C8.5884 29.1143 8.9454 29.2178 9.1839 29.3168C11.9064 30.4673 14.8974 30.7838 17.8314 30.2333C23.9334 29.0888 28.8594 24.0188 29.8134 17.9033C30.5664 13.0628 29.0349 8.31976 25.6074 4.89226Z" fill="#4F4F4F"/>
</svg>
