<svg width="31" height="30" viewBox="0 0 31 30" fill="none" xmlns="http://www.w3.org/2000/svg">
<path fill-rule="evenodd" clip-rule="evenodd" d="M4.60416 14.4331C6.27816 15.0076 7.61166 16.4086 8.16966 18.1846L8.22966 18.3646C8.86866 20.2486 8.60916 22.2766 7.53816 23.7976C7.34316 24.0736 7.38666 24.4036 7.59216 24.5596L10.7002 26.9206C10.8097 27.0031 10.9162 27.0031 10.9822 26.9956C11.0572 26.9836 11.1667 26.9431 11.2552 26.8171L11.6017 26.3251C12.6352 24.8596 14.3002 23.9551 16.0582 23.9041C18.0322 23.8636 19.8052 24.7681 20.9092 26.3626L21.0862 26.6191C21.1747 26.7451 21.2827 26.7871 21.3592 26.7991C21.4252 26.8126 21.5332 26.8081 21.6412 26.7241L24.7327 24.3916C24.9487 24.2296 24.9967 23.8831 24.8362 23.6506L24.4462 23.0881C23.4412 21.6361 23.1427 19.7521 23.6482 18.0496C24.1972 16.1956 25.5937 14.7286 27.3862 14.1286L27.6877 14.0266C27.9292 13.9471 28.0597 13.6471 27.9742 13.3711L26.7937 9.58962C26.7382 9.41262 26.6242 9.33312 26.5612 9.30012C26.4712 9.25362 26.3737 9.24612 26.2807 9.27762L25.7707 9.44712C24.0262 10.0276 22.1017 9.71262 20.6242 8.60112L20.4622 8.47962C19.0582 7.42362 18.2227 5.72112 18.2287 3.92712L18.2317 3.50712C18.2317 3.30762 18.1372 3.18312 18.0802 3.12612C18.0262 3.07062 17.9347 3.00462 17.8057 3.00462L13.9852 3.00012C13.7512 3.00012 13.5607 3.22362 13.5592 3.49962L13.5577 3.86262C13.5502 5.68512 12.6967 7.41912 11.2747 8.50362L11.0812 8.65062C9.51666 9.84012 7.47666 10.1761 5.62866 9.54612C5.55816 9.52212 5.49216 9.52662 5.42916 9.55962C5.38116 9.58362 5.29416 9.64512 5.25216 9.78162L4.02666 13.6756C3.93816 13.9591 4.08366 14.2546 4.35816 14.3491L4.60416 14.4331ZM10.9207 30.0001C10.1917 30.0001 9.48368 29.7631 8.88668 29.3086L5.77868 26.9491C4.29368 25.8241 3.96518 23.6596 5.04518 22.1251C5.60618 21.3301 5.72168 20.3086 5.39168 19.3396L5.30918 19.0876C5.03468 18.2146 4.40768 17.5366 3.63218 17.2711H3.63068L3.38618 17.1856C1.55918 16.5601 0.58418 14.6236 1.16468 12.7756L2.38868 8.88312C2.66618 8.00262 3.26468 7.29162 4.07468 6.88212C4.86668 6.48312 5.76218 6.42162 6.59918 6.70812C7.49768 7.01412 8.49518 6.84762 9.26468 6.26262L9.45818 6.11562C10.1422 5.59362 10.5547 4.74612 10.5577 3.85062L10.5592 3.48912C10.5667 1.56312 12.1042 0.00012207 13.9837 0.00012207H13.9897L17.8102 0.00462207C18.7132 0.00612207 19.5652 0.363122 20.2072 1.00962C20.8717 1.67712 21.2347 2.56962 21.2317 3.52212L21.2287 3.94062C21.2257 4.78962 21.6142 5.59212 22.2697 6.08412L22.4302 6.20562C23.1187 6.72312 24.0157 6.87162 24.8212 6.60162L25.3297 6.43212C26.1952 6.14412 27.1162 6.21462 27.9277 6.63012C28.7602 7.05612 29.3752 7.78962 29.6572 8.69712L30.8377 12.4786C31.4077 14.3056 30.4207 16.2766 28.6402 16.8721L28.3387 16.9726C27.4747 17.2636 26.7952 17.9836 26.5237 18.9016C26.2747 19.7431 26.4187 20.6686 26.9122 21.3796L27.3022 21.9421C28.3732 23.4901 28.0312 25.6621 26.5402 26.7856L23.4487 29.1196C22.7062 29.6806 21.7957 29.9071 20.8822 29.7616C19.9612 29.6131 19.1572 29.1031 18.6187 28.3261L18.4417 28.0681C17.9167 27.3121 17.0767 26.8531 16.1962 26.9026C15.3142 26.9266 14.5522 27.3451 14.0542 28.0531L13.7077 28.5451C13.1647 29.3146 12.3592 29.8171 11.4427 29.9611C11.2672 29.9881 11.0932 30.0001 10.9207 30.0001ZM16 12.75C14.7595 12.75 13.75 13.7595 13.75 15C13.75 16.2405 14.7595 17.25 16 17.25C17.2405 17.25 18.25 16.2405 18.25 15C18.25 13.7595 17.2405 12.75 16 12.75ZM16 20.25C13.105 20.25 10.75 17.895 10.75 15C10.75 12.105 13.105 9.75 16 9.75C18.895 9.75 21.25 12.105 21.25 15C21.25 17.895 18.895 20.25 16 20.25Z" fill="#4F4F4F"/>
</svg>
