<svg width="28" height="28" viewBox="0 0 28 28" fill="none" xmlns="http://www.w3.org/2000/svg">
<path fill-rule="evenodd" clip-rule="evenodd" d="M15.5 24.5H22.25V18.5H15.5V24.5ZM5.75 24.5H12.5V18.5H5.75V24.5ZM3.5 9.8C3.5 9.6755 3.5195 9.575 3.539 9.5H8.2145H12.5V15.5H3.539C3.5195 15.425 3.5 15.3245 3.5 15.2V9.8ZM6.5 5C6.5 4.172 7.2695 3.5 8.2145 3.5C10.1 3.5 11.255 5.135 11.891 6.5H8.2145C7.2695 6.5 6.5 5.828 6.5 5ZM19.7857 3.5C20.7307 3.5 21.5002 4.172 21.5002 5C21.5002 5.828 20.7307 6.5 19.7857 6.5H16.1002C16.7302 5.135 17.8822 3.5 19.7857 3.5ZM24.5 9.8V15.2C24.5 15.3245 24.4805 15.425 24.461 15.5H15.5V9.5H19.7855H24.461C24.4805 9.575 24.5 9.6755 24.5 9.8ZM24.8 6.5H24.2105C24.3875 6.029 24.5 5.5295 24.5 5C24.5 2.519 22.385 0.5 19.7855 0.5C16.9025 0.5 15.0935 2.2985 14 4.0955C12.9065 2.2985 11.0975 0.5 8.2145 0.5C5.615 0.5 3.5 2.519 3.5 5C3.5 5.5295 3.614 6.029 3.7895 6.5H3.2C1.6865 6.5 0.5 7.9505 0.5 9.8V15.2C0.5 16.8605 1.46 18.1895 2.75 18.446V24.9995C2.75 26.378 3.9695 27.5 5.468 27.5H22.5305C24.0305 27.5 25.25 26.378 25.25 24.9995V18.446C26.54 18.1895 27.5 16.8605 27.5 15.2V9.8C27.5 7.9505 26.3135 6.5 24.8 6.5Z" fill="#4F4F4F"/>
</svg>
