<svg width="32" height="28" viewBox="0 0 32 28" fill="none" xmlns="http://www.w3.org/2000/svg">
<path fill-rule="evenodd" clip-rule="evenodd" d="M30.5244 11.4891C30.5136 11.5129 30.5027 11.5367 30.4925 11.561C30.4822 11.5861 30.4741 11.6123 30.466 11.6385C30.4529 11.681 30.4398 11.7233 30.4175 11.7605C30.3732 11.834 30.3152 11.8958 30.257 11.9577C30.2404 11.9754 30.2238 11.993 30.2075 12.011C30.1894 12.0298 30.1733 12.0504 30.1573 12.071C30.1349 12.0997 30.1125 12.1284 30.0845 12.152C30.0005 12.2206 29.9034 12.2683 29.8067 12.3158C29.7998 12.3192 29.7929 12.3226 29.786 12.326C29.7656 12.3359 29.7461 12.3484 29.7267 12.3609C29.699 12.3786 29.6713 12.3964 29.6405 12.407C29.4785 12.467 29.306 12.5 29.1275 12.5C29.0465 12.5 28.9625 12.494 28.88 12.479L22.505 11.4215C21.6875 11.2865 21.1355 10.514 21.2705 9.6965C21.4055 8.8805 22.1765 8.321 22.9955 8.4635L25.4615 8.8715C23.594 5.5925 20.0285 3.5 16.1045 3.5C11.666 3.5 7.75552 6.077 6.14002 10.0625C5.90452 10.6475 5.34202 11 4.74952 11C4.56202 11 4.37152 10.9655 4.18702 10.8905C3.41902 10.58 3.04852 9.7055 3.36052 8.9375C5.43652 3.812 10.439 0.5 16.1045 0.5C21.2225 0.5 25.874 3.305 28.2215 7.682L28.775 4.7225C28.928 3.9095 29.714 3.371 30.5255 3.527C31.34 3.6785 31.877 4.463 31.724 5.2775L30.6005 11.2775C30.5861 11.354 30.5553 11.4215 30.5244 11.4891ZM25.8603 17.9378C26.1708 17.1683 27.0468 16.7993 27.8133 17.1098C28.5813 17.4203 28.9518 18.2948 28.6398 19.0628C26.5638 24.1883 21.5613 27.5003 15.8958 27.5003C10.7778 27.5003 6.12634 24.6953 3.77884 20.3183L3.22384 23.2763C3.09034 23.9978 2.46034 24.5003 1.75084 24.5003C1.65934 24.5003 1.56634 24.4913 1.47334 24.4733C0.658836 24.3218 0.123336 23.5373 0.276336 22.7228L1.39984 16.7228C1.41124 16.6639 1.43649 16.6116 1.46185 16.5591C1.47653 16.5287 1.49124 16.4982 1.50334 16.4663C1.5152 16.4364 1.52555 16.4055 1.53593 16.3745C1.55837 16.3075 1.58089 16.2403 1.61884 16.1828C1.64097 16.1487 1.66992 16.1214 1.69904 16.0939C1.71728 16.0767 1.73559 16.0594 1.75234 16.0403C1.76555 16.025 1.77861 16.0096 1.79166 15.9942C1.86305 15.9101 1.93379 15.8267 2.02384 15.7658C2.03268 15.7594 2.04324 15.7555 2.05369 15.7517C2.06273 15.7484 2.07168 15.7452 2.07934 15.7403C2.22484 15.6458 2.38084 15.5723 2.55334 15.5348C2.56384 15.5324 2.57478 15.533 2.58569 15.5336C2.59503 15.5342 2.60434 15.5347 2.61334 15.5333C2.77834 15.5063 2.94484 15.4898 3.12034 15.5198L9.49534 16.5788C10.3128 16.7123 10.8648 17.4863 10.7298 18.3038C10.6083 19.0373 9.97234 19.5578 9.25084 19.5578C9.16984 19.5578 9.08734 19.5518 9.00484 19.5368L6.53884 19.1288C8.40634 22.4078 11.9718 24.5003 15.8958 24.5003C20.3343 24.5003 24.2448 21.9233 25.8603 17.9378Z" fill="#4F4F4F"/>
</svg>
